<?xml version="1.0" standalone="no"?>
<!DOCTYPE svg PUBLIC "-//W3C//DTD SVG 20010904//EN"
 "http://www.w3.org/TR/2001/REC-SVG-20010904/DTD/svg10.dtd">
<svg version="1.0" xmlns="http://www.w3.org/2000/svg"
 width="500.000000pt" height="500.000000pt" viewBox="0 0 500.000000 500.000000"
 preserveAspectRatio="xMidYMid meet">
<metadata>
Created by potrace 1.16, written by Peter Selinger 2001-2019
</metadata>
<g transform="translate(0.000000,500.000000) scale(0.100000,-0.100000)"
fill="#000000" stroke="none">
<path d="M3995 4928 c-128 -24 -186 -41 -254 -75 -100 -48 -198 -147 -243
-243 -23 -48 -39 -70 -51 -70 -39 0 -97 -43 -172 -127 -44 -48 -97 -106 -119
-128 -140 -143 -320 -364 -665 -813 -127 -167 -325 -421 -439 -565 -236 -297
-347 -443 -484 -637 -198 -282 -268 -393 -300 -479 -20 -52 -20 -55 -2 -68 17
-13 18 -28 5 -381 -7 -202 -15 -423 -18 -492 -5 -120 -4 -126 19 -160 35 -51
82 -53 151 -6 76 52 176 90 422 161 452 130 661 226 736 339 18 28 71 91 117
140 62 66 141 175 307 426 273 412 415 603 755 1010 399 478 545 668 599 780
14 30 32 61 39 68 6 7 12 20 12 28 0 8 23 48 51 88 36 51 53 86 54 110 2 28
10 42 38 64 19 16 47 43 62 60 39 47 123 206 149 284 13 38 26 72 30 75 3 4 6
40 6 82 -1 193 -109 351 -304 446 -155 76 -359 109 -501 83z m273 -153 c82
-17 226 -81 256 -114 26 -29 65 -198 73 -312 7 -120 -4 -148 -107 -263 -38
-43 -70 -85 -70 -93 0 -17 -79 35 -246 163 -218 166 -435 303 -544 344 l-59
22 28 42 c37 54 115 126 171 158 45 26 127 53 185 61 76 10 242 6 313 -8z
m-723 -385 c116 -40 323 -169 535 -335 69 -54 157 -119 197 -145 l72 -48 -30
-41 c-17 -22 -32 -41 -35 -41 -2 0 -41 24 -86 53 -237 152 -691 374 -859 418
l-46 12 86 73 c47 40 91 73 97 73 6 1 37 -8 69 -19z m-164 -306 c41 -20 144
-76 229 -124 86 -48 263 -142 395 -208 132 -67 250 -129 262 -139 l21 -18
-149 -179 c-83 -99 -260 -306 -394 -460 -430 -496 -541 -642 -860 -1121 -265
-399 -265 -400 -315 -401 -34 -1 -49 -10 -122 -79 -95 -89 -132 -115 -168
-115 -33 0 -115 49 -270 161 -275 200 -478 321 -600 360 -30 9 -48 18 -39 18
27 2 108 97 231 271 145 205 229 310 567 709 546 645 825 1006 1036 1344 l49
77 27 -29 c14 -16 60 -46 100 -67z m-1952 -2451 c88 -51 257 -167 411 -283
190 -143 238 -176 315 -217 38 -20 54 -34 45 -37 -165 -59 -263 -92 -398 -131
l-163 -47 -27 23 c-15 13 -32 29 -38 36 -25 29 -87 63 -112 63 -15 0 -37 -7
-49 -15 l-21 -14 -5 302 c-3 166 -8 312 -12 325 -9 28 -2 28 54 -5z"/>
<path d="M3565 3818 c-9 -13 -63 -96 -120 -186 -58 -90 -198 -299 -313 -465
-223 -323 -347 -515 -340 -523 7 -6 187 196 274 306 100 128 174 234 322 465
175 273 199 316 207 369 8 51 -6 67 -30 34z"/>
<path d="M2863 3396 c-108 -100 -459 -507 -629 -728 -41 -54 -131 -178 -199
-275 -69 -98 -163 -230 -209 -293 -146 -198 -266 -374 -260 -379 11 -11 368
377 525 569 113 138 360 466 539 715 79 110 174 238 210 285 91 116 105 139
93 151 -7 7 -30 -8 -70 -45z"/>
<path d="M3241 2684 c-68 -61 -155 -166 -402 -484 -113 -146 -267 -339 -342
-429 -75 -91 -135 -167 -132 -169 6 -6 130 109 223 207 104 108 199 223 376
456 199 262 321 411 353 432 30 20 29 33 -1 33 -14 0 -44 -18 -75 -46z"/>
</g>
</svg>
